<svg xmlns="http://www.w3.org/2000/svg"  viewBox="0 0 304.2 228"><defs><style>.cls-1{fill:#fff;}.cls-2{fill:#24256e;}.cls-3{fill:#1a171b;}.cls-4{fill:#40b4e5;}</style></defs><title>cisa_weblogo</title><g id="witte_cirkel" data-name="witte cirkel"><path class="cls-1" d="M219,114A114,114,0,0,0,0,69.53v88.94A114,114,0,0,0,219,114Z"/></g><g id="logo"><path class="cls-2" d="M158,112.44H141.69V44.38H158Z"/><path class="cls-2" d="M216.21,62.75l-1.14-.6c-7.77-4.09-14-6-19.72-6-5.88,0-9.67,2.2-9.67,5.49,0,2.9,3.32,5.39,10.52,8.08l5.12,2c12.42,4.69,17.83,11.18,17.83,21.45,0,12.08-10.15,20.16-25.31,20.16-5.5,0-10.53-1.1-17.07-3.69-3.79-1.6-4.08-1.7-5.78-2.89V92.09c4.74,3.09,7.2,4.59,10.43,5.88a29,29,0,0,0,11.95,2.59c6.35,0,9.76-2.1,9.76-6.19,0-3.4-2.18-5.29-8.72-7.68L190.9,85.4a62.12,62.12,0,0,1-10.71-4.89,22.19,22.19,0,0,1-6.07-5,20.24,20.24,0,0,1-4.27-12.67c0-11.67,9.67-19.36,24.46-19.36,7.2,0,13.65,1.5,21.9,5.28Z"/><path class="cls-2" d="M258.78,60.75l10.43,26.35H249.3Zm9.1-16.37H249.2l-26.07,68.06h17.06L245,99h28.92l5.31,13.47H296.6Z"/><path class="cls-3" d="M110.6,39.63"/><path class="cls-4" d="M51.85,39A68.13,68.13,0,0,0,56,132a68.82,68.82,0,0,0,90.57,4.77l-4.93-8.38c-24.1,18.09-58.13,15.73-80.45-6.1a62.35,62.35,0,0,1-1-88.17A63.73,63.73,0,0,1,89.93,16.8,76.3,76.3,0,0,0,58.59,32.63,77.08,77.08,0,0,0,51.85,39Z"/><path class="cls-4" d="M91.36,16.47l-1.27.29Z"/><path class="cls-4" d="M97.68,15.38l0,0-1.84.27C96.46,15.54,97.07,15.45,97.68,15.38Z"/><path class="cls-4" d="M94.11,15.91l-.43.08Z"/><path class="cls-4" d="M93.68,16q-1.17.22-2.32.48C92.13,16.3,92.9,16.14,93.68,16Z"/><path class="cls-4" d="M95.86,15.63l-1.75.28C94.69,15.81,95.27,15.72,95.86,15.63Z"/><path class="cls-4" d="M90.09,16.76l-.16,0Z"/><path class="cls-4" d="M49.21,140.34A76.45,76.45,0,0,1,51.85,39c1-1.14,2-2.26,3-3.35a69.84,69.84,0,0,1,27.9-17.55c-2.15.6-4.28,1.27-6.39,2A90.73,90.73,0,0,0,55.82,30.84c-1.3,1-2.59,2-3.85,3A83.53,83.53,0,0,0,41.71,151.56c29.41,35,83.8,38.51,119.17,9.68l-6-10.13C122.63,176,75.66,171.83,49.21,140.34Z"/><path class="cls-4" d="M97.77,15.25l-.08.1a76.3,76.3,0,0,1,8.86-.66h0C103.62,14.74,100.69,14.93,97.77,15.25Z"/><path class="cls-4" d="M82.79,18.15A69.84,69.84,0,0,0,54.89,35.7c-1.06,1.09-2.07,2.21-3,3.35a77.08,77.08,0,0,1,6.74-6.42A76.3,76.3,0,0,1,89.93,16.8l.16,0,1.27-.29q1.16-.26,2.32-.48l.43-.08,1.75-.28,1.84-.27.08-.1A92.16,92.16,0,0,0,82.79,18.15Z"/><path class="cls-4" d="M168.48,176.44a93.9,93.9,0,0,1-67.77,21.61,91.85,91.85,0,0,1-51.78-162q3.36-2.82,6.89-5.24A83.14,83.14,0,0,1,106.9,14.31l-.35.38a64.65,64.65,0,0,1,13,1A69.83,69.83,0,0,1,132.65,20v-.44a53.89,53.89,0,0,0-13.32-4.53c-.89-.17-3.57-.93-12.18-1-1.86,0-1.17,0-1.75,0l-1.75,0-2.25.07a100.49,100.49,0,0,0-3.65,200.62,104,104,0,0,0,75.66-25.17l1.28-1.35,1.25-1.32-6.57-11.17Z"/><path class="cls-4" d="M55.82,30.84A90.73,90.73,0,0,1,76.4,20.19c2.11-.77,4.25-1.44,6.39-2A65.36,65.36,0,0,1,97.93,15l-.16.22h0c2.92-.32,5.84-.51,8.78-.56h0l.35-.38A83.14,83.14,0,0,0,55.82,30.84Z"/><path class="cls-4" d="M97.78,15.25l.16-.22a65.36,65.36,0,0,0-15.14,3.12,92.16,92.16,0,0,1,15-2.9Z"/><path class="cls-2" d="M109.64,99.75C96,99.75,86.35,91,86.35,78.57s9.72-21,23.77-21a35.47,35.47,0,0,1,5.38.45l6.35-13.32A44.49,44.49,0,0,0,109,43.12c-8.18,0-15.3,1.62-21.27,4.86a34.72,34.72,0,0,0-18.39,30.8C69.31,99.54,85,114,107.52,114a48.24,48.24,0,0,0,22.58-5.19l-7-12A36.51,36.51,0,0,1,109.64,99.75Z"/><path class="cls-2" d="M160.25,128.31v8.56H158v-8.56Z"/><path class="cls-2" d="M171.26,136.64a5.45,5.45,0,0,1-2.15.36c-3.2,0-4.61-2-4.61-4.27,0-3,2.21-4.54,4.76-4.54a5.39,5.39,0,0,1,2.13.37l-.44,1.82a4.12,4.12,0,0,0-1.59-.3,2.51,2.51,0,0,0,.05,5,4.73,4.73,0,0,0,1.52-.24Z"/><path class="cls-2" d="M177.3,130.24h-2.18v-1.93h6.7v1.93H179.6v6.63h-2.3Z"/><path class="cls-2" d="M194.15,127.07a1.2,1.2,0,0,1-1.29,1.19,1.2,1.2,0,1,1,0-2.4A1.2,1.2,0,0,1,194.15,127.07Zm-2.46,9.8V129.2h2.38v7.67Z"/><path class="cls-2" d="M199.73,131.65c0-1,0-1.77-.06-2.45h2.07l.11,1.05h0a2.81,2.81,0,0,1,2.37-1.22c1.57,0,2.75,1,2.75,3.29v4.55h-2.38v-4.25c0-1-.34-1.66-1.21-1.66a1.27,1.27,0,0,0-1.21.89,1.62,1.62,0,0,0-.09.6v4.42h-2.38Z"/><path class="cls-2" d="M219.6,125.73H222v4.38h0a2.88,2.88,0,0,1,.94-.78,2.68,2.68,0,0,1,1.24-.3c1.52,0,2.68,1.05,2.68,3.36v4.49H224.5v-4.22c0-1-.34-1.69-1.24-1.69a1.27,1.27,0,0,0-1.19.83,1.5,1.5,0,0,0-.08.53v4.55H219.6Z"/><path class="cls-2" d="M236.91,136.87l-.14-.77h0a2.76,2.76,0,0,1-2.2.94,2.35,2.35,0,0,1-2.48-2.35c0-2,1.79-2.95,4.5-2.93v-.11c0-.41-.22-1-1.4-1a4.31,4.31,0,0,0-2.12.58l-.44-1.54a6.33,6.33,0,0,1,3-.67c2.56,0,3.37,1.51,3.37,3.31V135a11.8,11.8,0,0,0,.11,1.87Zm-.28-3.62c-1.25,0-2.23.28-2.23,1.21a.86.86,0,0,0,.94.91,1.3,1.3,0,0,0,1.24-.88,1.73,1.73,0,0,0,0-.41Z"/><path class="cls-2" d="M244.58,131.72c0-1.13,0-1.87-.06-2.53h2.05l.08,1.41h.06a2.25,2.25,0,0,1,2.07-1.58,2.47,2.47,0,0,1,.5,0v2.24a3.44,3.44,0,0,0-.64-.06,1.53,1.53,0,0,0-1.63,1.21,2.83,2.83,0,0,0,0,.53v3.89h-2.38Z"/><path class="cls-2" d="M254.3,131.65c0-1,0-1.77-.06-2.45h2l.11,1h0a2.66,2.66,0,0,1,2.32-1.21,2.18,2.18,0,0,1,2.1,1.3h0a3.42,3.42,0,0,1,1-.93,2.77,2.77,0,0,1,1.46-.38c1.47,0,2.59,1,2.59,3.33v4.52h-2.32V132.7c0-1.11-.36-1.76-1.13-1.76a1.17,1.17,0,0,0-1.1.83,2,2,0,0,0-.09.61v4.49h-2.32v-4.3c0-1-.34-1.63-1.1-1.63a1.21,1.21,0,0,0-1.11.86,1.58,1.58,0,0,0-.09.6v4.47H254.3Z"/><path class="cls-2" d="M279.12,132.95a3.85,3.85,0,0,1-4,4.09,3.76,3.76,0,0,1-4-4A3.83,3.83,0,0,1,275.2,129,3.73,3.73,0,0,1,279.12,132.95Zm-5.55.08c0,1.32.55,2.31,1.57,2.31s1.52-.93,1.52-2.31c0-1.15-.44-2.31-1.52-2.31S273.57,131.9,273.57,133Z"/><path class="cls-2" d="M284.35,131.65c0-1,0-1.77-.06-2.45h2.07l.11,1.05h0a2.81,2.81,0,0,1,2.37-1.22c1.57,0,2.75,1,2.75,3.29v4.55h-2.38v-4.25c0-1-.34-1.66-1.21-1.66a1.27,1.27,0,0,0-1.21.89,1.62,1.62,0,0,0-.09.6v4.42h-2.38Z"/><path class="cls-2" d="M298.79,129.2l1.14,3.76c.13.46.28,1,.38,1.43h0c.11-.41.24-1,.35-1.43l.94-3.76h2.56l-1.79,5.05c-1.1,3-1.83,4.27-2.7,5a4.4,4.4,0,0,1-2.31,1.05l-.5-2a3,3,0,0,0,1-.41,2.73,2.73,0,0,0,1-1,.62.62,0,0,0,.13-.34.87.87,0,0,0-.11-.39l-2.81-7Z"/></g></svg>
